Coordinates
version=1
nRows=17
nColumns=40
inDegrees=yes

Units are S.I. units (second, meters, Newtons, ...)
Angles are in degrees.

endheader
time	pelvis_tilt	pelvis_list	pelvis_rotation	pelvis_tx	pelvis_ty	pelvis_tz	hip_flexion_r	hip_adduction_r	hip_rotation_r	knee_angle_r	knee_angle_r_beta	ankle_angle_r	subtalar_angle_r	mtp_angle_r	hip_flexion_l	hip_adduction_l	hip_rotation_l	knee_angle_l	knee_angle_l_beta	ankle_angle_l	subtalar_angle_l	mtp_angle_l	lumbar_extension	lumbar_bending	lumbar_rotation	arm_flex_r	arm_add_r	arm_rot_r	elbow_flex_r	pro_sup_r	wrist_flex_r	wrist_dev_r	arm_flex_l	arm_add_l	arm_rot_l	elbow_flex_l	pro_sup_l	wrist_flex_l	wrist_dev_l
      8.70750000	     -4.23478856	     -3.54954181	     -0.58250053	      0.95535423	      0.93245833	      0.42166817	     35.89836920	    -10.87642958	    -11.01642265	     50.42496393	     50.42496393	      5.33304523	    -13.73212089	      2.81782441	     12.02317653	     -4.68440641	    -13.04394464	     19.18770831	     19.18770831	     14.69614881	     -0.97093804	     -5.95013234	    -12.07136993	      1.96170025	      1.01351283	      3.63770768	    -14.53286316	     -1.91085035	     71.25462971	     45.63765932	      0.00000000	      0.00000000	     17.66850406	    -15.58484670	      4.55683231	     35.09275444	     46.01847770	      0.00000000	      0.00000000
      8.71871429	     -4.18116049	     -3.45222019	     -0.71826669	      0.95439867	      0.93237030	      0.42167758	     35.87144563	    -10.59573058	    -11.04758222	     47.01571563	     47.01571563	      4.64735049	    -12.60372072	      3.07411228	     11.22716547	     -4.53893564	    -13.25037277	     18.77556890	     18.77556890	     14.94003843	     -0.75018190	     -6.06106662	    -12.19766143	      1.92495354	      1.35890587	      1.67326609	    -15.15549107	     -2.06230285	     68.61110857	     45.71763999	      0.00000000	      0.00000000	     19.24619128	    -15.81292837	      4.36093706	     36.04018852	     46.07175607	      0.00000000	      0.00000000
      8.72992857	     -4.22647649	     -3.27708942	     -0.87240508	      0.95354201	      0.93211926	      0.42199004	     35.84333400	    -10.33628088	    -11.12923014	     43.43685097	     43.43685097	      3.71050524	    -11.40001724	      2.49513156	     10.46074446	     -4.33874970	    -13.61813369	     18.22514523	     18.22514523	     15.16495454	     -0.31200599	     -6.41496957	    -12.15388249	      1.66868588	      1.51097674	      0.81874577	    -14.87209667	     -3.31637227	     62.80456269	     45.93623591	      0.00000000	      0.00000000	     20.63157715	    -16.13968222	      4.02535000	     36.92062778	     46.14660750	      0.00000000	      0.00000000
      8.74114286	     -4.17062540	     -3.17786325	     -0.97846292	      0.95283410	      0.93195703	      0.42225989	     35.54675062	     -9.98928319	    -11.33284037	     39.72124172	     39.72124172	      2.98974172	     -9.82019392	      2.44593955	      9.60223689	     -4.18233019	    -13.82384696	     17.70776757	     17.70776757	     15.41865277	     -0.04693082	     -6.60294289	    -12.27557810	      1.60248679	      1.78953318	     -0.68374270	    -15.10131063	     -3.74378439	     59.05689277	     46.05852983	      0.00000000	      0.00000000	     21.92486035	    -16.27652372	      3.63794341	     38.21480293	     46.22212566	      0.00000000	      0.00000000
      8.75235714	     -4.17200757	     -3.17050159	     -1.08330875	      0.95222622	      0.93169104	      0.42273418	     35.14330337	     -9.48290580	    -11.64512254	     35.84016038	     35.84016038	      2.37905754	     -8.02445162	      2.76484352	      8.81352232	     -4.14170930	    -13.96653035	     17.21900549	     17.21900549	     15.66122645	      0.17992194	     -6.75739542	    -12.35666546	      1.66904512	      1.98525653	     -2.22738362	    -15.39902669	     -4.01669379	     56.06418033	     46.15614718	      0.00000000	      0.00000000	     23.04472355	    -16.51365490	      3.30164156	     39.40129802	     46.28418890	      0.00000000	      0.00000000
      8.76357143	     -4.20582725	     -2.96039655	     -1.16676755	      0.95184561	      0.93118609	      0.42327432	     34.73972207	     -9.15344550	    -11.83039395	     32.03983606	     32.03983606	      1.70493120	     -5.98185636	      2.35143283	      7.97183169	     -3.85046886	    -14.13300655	     16.55675982	     16.55675982	     15.73498376	      0.35943535	     -7.32390882	    -12.21742826	      1.43361568	      1.52803768	     -1.80491907	    -14.71670273	     -5.47366896	     48.68993799	     46.43343222	      0.00000000	      0.00000000	     23.36016163	    -17.15248196	      2.24570598	     41.77459245	     46.43068031	      0.00000000	      0.00000000
      8.77478571	     -4.32242194	     -2.88698742	     -1.25963006	      0.95150434	      0.93041953	      0.42405088	     34.30893860	     -8.57179105	    -11.95731409	     28.23878539	     28.23878539	      1.29628905	     -4.10765396	      3.07890589	      7.33383679	     -3.75003988	    -14.23429696	     16.14367426	     16.14367426	     16.04346338	      0.45053566	     -7.45255755	    -12.10241964	      1.44934665	      1.64901280	     -3.59325938	    -14.97706778	     -5.44974153	     47.14610850	     46.47126895	      0.00000000	      0.00000000	     24.35432594	    -17.38373442	      1.95940915	     42.86854547	     46.48179422	      0.00000000	      0.00000000
      8.78600000	     -4.13715804	     -2.80864027	     -1.32886604	      0.95159590	      0.92989676	      0.42481231	     33.48376449	     -8.07383194	    -12.33739709	     24.68186583	     24.68186583	      1.16641064	     -1.68146185	      3.87733315	      6.24723681	     -3.60391701	    -14.30374542	     15.55782289	     15.55782289	     16.36655986	      0.60999053	     -7.65575785	    -12.32474009	      1.45885768	      2.22410586	     -5.36545311	    -15.37809932	     -5.52978712	     44.57715572	     46.55010543	      0.00000000	      0.00000000	     25.37578123	    -17.24616249	      1.62400544	     44.64314910	     46.54423568	      0.00000000	      0.00000000
      8.79721429	     -4.04466755	     -2.64111138	     -1.39201797	      0.95191710	      0.92906798	      0.42576756	     32.76482289	     -7.63350719	    -12.61254112	     21.46327684	     21.46327684	      1.16812208	      0.60968850	      4.85976912	      5.28164224	     -3.37378884	    -14.35338889	     15.02106217	     15.02106217	     16.60131235	      0.67606686	     -7.89101944	    -12.31977629	      1.29617127	      2.62812555	     -6.86393831	    -15.48292981	     -5.63966552	     42.04622758	     46.63289703	      0.00000000	      0.00000000	     26.22096154	    -17.26969991	      1.28646962	     46.47733212	     46.60587347	      0.00000000	      0.00000000
      8.80842857	     -3.81096820	     -2.36456406	     -1.42478311	      0.95248250	      0.92823604	      0.42664506	     32.23950133	     -7.50225265	    -13.19987625	     19.40776642	     19.40776642	      2.59260506	      3.37694323	      9.02777454	      3.94145606	     -2.85747980	    -13.80315079	     13.96439579	     13.96439579	     16.11284117	     -0.33196810	     -9.25450875	    -12.47829166	      0.98527240	      1.52449331	     -5.26740147	    -14.82444337	     -7.32565703	     33.75441831	     46.98166476	      0.00000000	      0.00000000	     24.70186125	    -18.58142921	     -0.27981305	     52.34669053	     46.81044383	      0.00000000	      0.00000000
      8.81964286	     -3.70277616	     -2.27973696	     -1.47325848	      0.95324808	      0.92702943	      0.42790789	     31.55304473	     -6.95156899	    -13.37258108	     17.12266043	     17.12266043	      2.68655237	      4.79765811	      9.84353659	      3.01826085	     -2.74835248	    -13.71767259	     13.61566404	     13.61566404	     16.50774774	     -0.37379557	     -9.42741533	    -12.44158657	      0.95302663	      1.93848211	     -7.08323013	    -15.01199396	     -7.34335571	     32.49328665	     47.00929091	      0.00000000	      0.00000000	     25.49706144	    -18.44769093	     -0.58503680	     53.79705210	     46.86476084	      0.00000000	      0.00000000
      8.83085714	     -3.47414876	     -2.07064360	     -1.49548642	      0.95416053	      0.92584308	      0.42906298	     31.02708387	     -6.73003061	    -13.87500583	     15.91221578	     15.91221578	      3.65366226	      6.44080364	     12.51587489	      1.78979474	     -2.37313526	    -13.17069317	     12.85268747	     12.85268747	     16.41009192	     -1.30756461	    -10.07940163	    -12.60992482	      0.79513989	      1.76050676	     -7.79231059	    -14.92355052	     -8.04982396	     29.56136995	     47.10240906	      0.00000000	      0.00000000	     24.91498270	    -18.97685344	     -1.42002975	     58.16782165	     47.00447798	      0.00000000	      0.00000000
      8.84207143	     -3.32892433	     -1.99632052	     -1.50196511	      0.95524028	      0.92441232	      0.43057725	     30.40277915	     -6.25529069	    -14.06516232	     14.75695642	     14.75695642	      3.72652979	      7.12151777	     12.86315648	      0.89644895	     -2.31466198	    -13.02166577	     12.66634264	     12.66634264	     16.84721295	     -1.46678884	    -10.19344800	    -12.55987749	      0.77095193	      2.25478192	     -9.52591003	    -14.95357055	     -8.03996573	     28.44347304	     47.12432637	      0.00000000	      0.00000000	     25.61380555	    -18.78153284	     -1.65592515	     59.77397796	     47.05504266	      0.00000000	      0.00000000
      8.85328571	     -3.13511926	     -1.91818574	     -1.50578314	      0.95652037	      0.92291126	      0.43212940	     29.84751680	     -5.87864929	    -14.30081576	     14.30266221	     14.30266221	      3.85891066	      7.57118607	     12.92697120	     -0.08214561	     -2.23526376	    -12.76444308	     12.43064971	     12.43064971	     17.27116926	     -1.77733915	    -10.19047384	    -12.60692371	      0.75451681	      2.82269031	    -11.21701514	    -14.91845932	     -8.08350343	     27.31679528	     47.14923594	      0.00000000	      0.00000000	     26.02591590	    -18.53523651	     -1.83780203	     62.26821169	     47.11321830	      0.00000000	      0.00000000
      8.86450000	     -3.01807996	     -1.82714107	     -1.49084995	      0.95787492	      0.92125966	      0.43381887	     29.41928227	     -5.54730293	    -14.41256940	     14.31110053	     14.31110053	      3.78580628	      7.57325772	     12.52816415	     -0.93614648	     -2.15504680	    -12.39304611	     12.28293936	     12.28293936	     17.68722953	     -2.22663540	    -10.05424590	    -12.56349108	      0.69068416	      3.06048084	    -12.69228182	    -14.80283706	     -8.22140251	     26.44321403	     47.16949785	      0.00000000	      0.00000000	     25.92757039	    -18.61153552	     -2.04480635	     65.41214279	     47.18235773	      0.00000000	      0.00000000
      8.87571429	     -2.89500618	     -1.77998841	     -1.39361225	      0.95943031	      0.91955585	      0.43558551	     28.92420009	     -5.21731240	    -14.46722599	     14.53669094	     14.53669094	      3.12346726	      7.11261525	     10.50266202	     -1.73903084	     -2.15131805	    -11.92606332	     12.26484674	     12.26484674	     18.23804227	     -2.72949954	     -9.58497749	    -12.51792786	      0.69865388	      2.33332248	    -13.47566224	    -14.71661939	     -8.57028467	     25.96028456	     47.17256985	      0.00000000	      0.00000000	     24.55336747	    -19.59127577	     -2.80425209	     70.19607681	     47.32488215	      0.00000000	      0.00000000
      8.88692857	     -2.87240280	     -1.81244215	     -1.23490271	      0.96097590	      0.91784996	      0.43740895	     28.50285134	     -4.90211392	    -14.67244881	     14.99902528	     14.99902528	      2.96426534	      6.80451267	     10.36029556	     -2.36390994	     -2.32013670	    -11.70730306	     12.36462246	     12.36462246	     18.68937769	     -2.80820805	     -9.67779250	    -12.20705588	      0.83494672	      2.16319469	    -14.68080910	    -14.64411386	     -8.56886389	     25.46852118	     47.18027503	      0.00000000	      0.00000000	     24.85848730	    -19.76121119	     -3.01152626	     70.75653326	     47.35199258	      0.00000000	      0.00000000
